<mxfile host="app.diagrams.net" agent="Mozilla/5.0 (Windows NT 10.0; Win64; x64) AppleWebKit/537.36 (KHTML, like Gecko) Chrome/131.0.0.0 Safari/537.36" version="25.0.3" pages="2">
  <diagram name="Page-1" id="V2axQh3Ksf1RVlOYfUab">
    <mxGraphModel>
      <root>
        <mxCell id="0" />
        <mxCell id="1" parent="0" />
      </root>
    </mxGraphModel>
  </diagram>
  <diagram id="G6HzP-7GfF3_8SMNoHzN" name="Page-2">
    <mxGraphModel dx="1750" dy="882" grid="1" gridSize="10" guides="1" tooltips="1" connect="1" arrows="1" fold="1" page="1" pageScale="1" pageWidth="850" pageHeight="1100" math="0" shadow="0">
      <root>
        <mxCell id="0" />
        <mxCell id="1" parent="0" />
        <mxCell id="CRB33uG2siL43U841Vf6-1" value="AWS Account" style="points=[[0,0],[0.25,0],[0.5,0],[0.75,0],[1,0],[1,0.25],[1,0.5],[1,0.75],[1,1],[0.75,1],[0.5,1],[0.25,1],[0,1],[0,0.75],[0,0.5],[0,0.25]];outlineConnect=0;html=1;whiteSpace=wrap;fontSize=12;fontStyle=0;container=1;pointerEvents=0;collapsible=0;recursiveResize=0;shape=mxgraph.aws4.group;grIcon=mxgraph.aws4.group_account;strokeColor=#d79b00;fillColor=#ffcd28;verticalAlign=top;align=left;spacingLeft=30;dashed=0;gradientColor=#ffa500;" vertex="1" parent="1">
          <mxGeometry x="70" y="230" width="1070" height="630" as="geometry" />
        </mxCell>
        <mxCell id="CRB33uG2siL43U841Vf6-32" value="VPC" style="sketch=0;outlineConnect=0;html=1;whiteSpace=wrap;fontSize=12;fontStyle=0;shape=mxgraph.aws4.group;grIcon=mxgraph.aws4.group_vpc;verticalAlign=top;align=left;spacingLeft=30;dashed=0;fillColor=#f8cecc;strokeColor=#b85450;" vertex="1" parent="CRB33uG2siL43U841Vf6-1">
          <mxGeometry x="45" y="60" width="980" height="520" as="geometry" />
        </mxCell>
        <mxCell id="CRB33uG2siL43U841Vf6-33" value="" style="group" vertex="1" connectable="0" parent="CRB33uG2siL43U841Vf6-1">
          <mxGeometry x="85" y="100" width="900" height="430" as="geometry" />
        </mxCell>
        <mxCell id="CRB33uG2siL43U841Vf6-2" value="Public subnet" style="points=[[0,0],[0.25,0],[0.5,0],[0.75,0],[1,0],[1,0.25],[1,0.5],[1,0.75],[1,1],[0.75,1],[0.5,1],[0.25,1],[0,1],[0,0.75],[0,0.5],[0,0.25]];outlineConnect=0;gradientColor=none;html=1;whiteSpace=wrap;fontSize=12;fontStyle=0;container=1;pointerEvents=0;collapsible=0;recursiveResize=0;shape=mxgraph.aws4.group;grIcon=mxgraph.aws4.group_security_group;grStroke=0;strokeColor=#7AA116;fillColor=#F2F6E8;verticalAlign=top;align=left;spacingLeft=30;fontColor=#248814;dashed=0;movable=1;resizable=1;rotatable=1;deletable=1;editable=1;locked=0;connectable=1;" vertex="1" parent="CRB33uG2siL43U841Vf6-33">
          <mxGeometry x="180" width="170" height="430" as="geometry" />
        </mxCell>
        <mxCell id="CRB33uG2siL43U841Vf6-5" value="" style="points=[];aspect=fixed;html=1;align=center;shadow=0;dashed=0;fillColor=#FF6A00;strokeColor=none;shape=mxgraph.alibaba_cloud.bastionhost;movable=1;resizable=1;rotatable=1;deletable=1;editable=1;locked=0;connectable=1;" vertex="1" parent="CRB33uG2siL43U841Vf6-2">
          <mxGeometry x="59.80000000000001" y="50" width="50.4" height="39.900000000000006" as="geometry" />
        </mxCell>
        <mxCell id="CRB33uG2siL43U841Vf6-21" value="Bastion Server" style="text;html=1;align=center;verticalAlign=middle;whiteSpace=wrap;rounded=0;movable=1;resizable=1;rotatable=1;deletable=1;editable=1;locked=0;connectable=1;" vertex="1" parent="CRB33uG2siL43U841Vf6-2">
          <mxGeometry x="30" y="100" width="110" height="30" as="geometry" />
        </mxCell>
        <mxCell id="CRB33uG2siL43U841Vf6-23" value="" style="group;movable=1;resizable=1;rotatable=1;deletable=1;editable=1;locked=0;connectable=1;" vertex="1" connectable="0" parent="CRB33uG2siL43U841Vf6-2">
          <mxGeometry x="19.5" y="280" width="131" height="106" as="geometry" />
        </mxCell>
        <mxCell id="CRB33uG2siL43U841Vf6-24" value="" style="group;movable=1;resizable=1;rotatable=1;deletable=1;editable=1;locked=0;connectable=1;" vertex="1" connectable="0" parent="CRB33uG2siL43U841Vf6-23">
          <mxGeometry y="-30" width="131" height="136" as="geometry" />
        </mxCell>
        <mxCell id="CRB33uG2siL43U841Vf6-6" value="" style="outlineConnect=0;dashed=0;verticalLabelPosition=bottom;verticalAlign=top;align=center;html=1;shape=mxgraph.aws3.application_load_balancer;fillColor=#F58534;gradientColor=none;movable=1;resizable=1;rotatable=1;deletable=1;editable=1;locked=0;connectable=1;" vertex="1" parent="CRB33uG2siL43U841Vf6-24">
          <mxGeometry x="30.5" y="30" width="69" height="72" as="geometry" />
        </mxCell>
        <mxCell id="CRB33uG2siL43U841Vf6-22" value="Ingress Controller" style="text;html=1;align=center;verticalAlign=middle;whiteSpace=wrap;rounded=0;movable=1;resizable=1;rotatable=1;deletable=1;editable=1;locked=0;connectable=1;" vertex="1" parent="CRB33uG2siL43U841Vf6-24">
          <mxGeometry y="106" width="130" height="30" as="geometry" />
        </mxCell>
        <mxCell id="CRB33uG2siL43U841Vf6-8" value="" style="image;aspect=fixed;perimeter=ellipsePerimeter;html=1;align=center;shadow=0;dashed=0;spacingTop=3;image=img/lib/active_directory/security.svg;movable=1;resizable=1;rotatable=1;deletable=1;editable=1;locked=0;connectable=1;" vertex="1" parent="CRB33uG2siL43U841Vf6-24">
          <mxGeometry x="99.5" width="31.5" height="50" as="geometry" />
        </mxCell>
        <mxCell id="CRB33uG2siL43U841Vf6-3" value="" style="sketch=0;points=[[0,0,0],[0.25,0,0],[0.5,0,0],[0.75,0,0],[1,0,0],[0,1,0],[0.25,1,0],[0.5,1,0],[0.75,1,0],[1,1,0],[0,0.25,0],[0,0.5,0],[0,0.75,0],[1,0.25,0],[1,0.5,0],[1,0.75,0]];outlineConnect=0;fontColor=#232F3E;fillColor=#8C4FFF;strokeColor=#ffffff;dashed=0;verticalLabelPosition=bottom;verticalAlign=top;align=center;html=1;fontSize=12;fontStyle=0;aspect=fixed;shape=mxgraph.aws4.resourceIcon;resIcon=mxgraph.aws4.route_53;movable=1;resizable=1;rotatable=1;deletable=1;editable=1;locked=0;connectable=1;" vertex="1" parent="CRB33uG2siL43U841Vf6-33">
          <mxGeometry y="176" width="78" height="78" as="geometry" />
        </mxCell>
        <mxCell id="CRB33uG2siL43U841Vf6-9" value="Private subnet" style="points=[[0,0],[0.25,0],[0.5,0],[0.75,0],[1,0],[1,0.25],[1,0.5],[1,0.75],[1,1],[0.75,1],[0.5,1],[0.25,1],[0,1],[0,0.75],[0,0.5],[0,0.25]];outlineConnect=0;gradientColor=none;html=1;whiteSpace=wrap;fontSize=12;fontStyle=0;container=1;pointerEvents=0;collapsible=0;recursiveResize=0;shape=mxgraph.aws4.group;grIcon=mxgraph.aws4.group_security_group;grStroke=0;strokeColor=#00A4A6;fillColor=#E6F6F7;verticalAlign=top;align=left;spacingLeft=30;fontColor=#147EBA;dashed=0;movable=1;resizable=1;rotatable=1;deletable=1;editable=1;locked=0;connectable=1;" vertex="1" parent="CRB33uG2siL43U841Vf6-33">
          <mxGeometry x="430" width="240" height="430" as="geometry" />
        </mxCell>
        <mxCell id="CRB33uG2siL43U841Vf6-20" style="edgeStyle=orthogonalEdgeStyle;rounded=0;orthogonalLoop=1;jettySize=auto;html=1;entryX=0.5;entryY=0;entryDx=0;entryDy=0;shape=link;flowAnimation=1;movable=1;resizable=1;rotatable=1;deletable=1;editable=1;locked=0;connectable=1;" edge="1" parent="CRB33uG2siL43U841Vf6-9" source="CRB33uG2siL43U841Vf6-12" target="CRB33uG2siL43U841Vf6-13">
          <mxGeometry relative="1" as="geometry" />
        </mxCell>
        <mxCell id="CRB33uG2siL43U841Vf6-12" value="Amazon EKS" style="sketch=0;outlineConnect=0;fontColor=#232F3E;gradientColor=none;strokeColor=#ffffff;fillColor=#232F3E;dashed=0;verticalLabelPosition=middle;verticalAlign=bottom;align=center;html=1;whiteSpace=wrap;fontSize=10;fontStyle=1;spacing=3;shape=mxgraph.aws4.productIcon;prIcon=mxgraph.aws4.eks;movable=1;resizable=1;rotatable=1;deletable=1;editable=1;locked=0;connectable=1;" vertex="1" parent="CRB33uG2siL43U841Vf6-9">
          <mxGeometry x="80" y="50" width="80" height="100" as="geometry" />
        </mxCell>
        <mxCell id="CRB33uG2siL43U841Vf6-13" value="" style="rounded=1;whiteSpace=wrap;html=1;movable=1;resizable=1;rotatable=1;deletable=1;editable=1;locked=0;connectable=1;" vertex="1" parent="CRB33uG2siL43U841Vf6-9">
          <mxGeometry x="20" y="254" width="200" height="126" as="geometry" />
        </mxCell>
        <mxCell id="CRB33uG2siL43U841Vf6-14" value="" style="sketch=0;points=[[0,0,0],[0.25,0,0],[0.5,0,0],[0.75,0,0],[1,0,0],[0,1,0],[0.25,1,0],[0.5,1,0],[0.75,1,0],[1,1,0],[0,0.25,0],[0,0.5,0],[0,0.75,0],[1,0.25,0],[1,0.5,0],[1,0.75,0]];outlineConnect=0;fontColor=#232F3E;fillColor=#ED7100;strokeColor=#ffffff;dashed=0;verticalLabelPosition=bottom;verticalAlign=top;align=center;html=1;fontSize=12;fontStyle=0;aspect=fixed;shape=mxgraph.aws4.resourceIcon;resIcon=mxgraph.aws4.ec2;movable=1;resizable=1;rotatable=1;deletable=1;editable=1;locked=0;connectable=1;" vertex="1" parent="CRB33uG2siL43U841Vf6-9">
          <mxGeometry x="38" y="278" width="42" height="42" as="geometry" />
        </mxCell>
        <mxCell id="CRB33uG2siL43U841Vf6-15" value="" style="sketch=0;points=[[0,0,0],[0.25,0,0],[0.5,0,0],[0.75,0,0],[1,0,0],[0,1,0],[0.25,1,0],[0.5,1,0],[0.75,1,0],[1,1,0],[0,0.25,0],[0,0.5,0],[0,0.75,0],[1,0.25,0],[1,0.5,0],[1,0.75,0]];outlineConnect=0;fontColor=#232F3E;fillColor=#ED7100;strokeColor=#ffffff;dashed=0;verticalLabelPosition=bottom;verticalAlign=top;align=center;html=1;fontSize=12;fontStyle=0;aspect=fixed;shape=mxgraph.aws4.resourceIcon;resIcon=mxgraph.aws4.ec2;movable=1;resizable=1;rotatable=1;deletable=1;editable=1;locked=0;connectable=1;" vertex="1" parent="CRB33uG2siL43U841Vf6-9">
          <mxGeometry x="140" y="278" width="42" height="42" as="geometry" />
        </mxCell>
        <mxCell id="CRB33uG2siL43U841Vf6-16" value="" style="sketch=0;points=[[0,0,0],[0.25,0,0],[0.5,0,0],[0.75,0,0],[1,0,0],[0,1,0],[0.25,1,0],[0.5,1,0],[0.75,1,0],[1,1,0],[0,0.25,0],[0,0.5,0],[0,0.75,0],[1,0.25,0],[1,0.5,0],[1,0.75,0]];outlineConnect=0;fontColor=#232F3E;fillColor=#ED7100;strokeColor=#ffffff;dashed=0;verticalLabelPosition=bottom;verticalAlign=top;align=center;html=1;fontSize=12;fontStyle=0;aspect=fixed;shape=mxgraph.aws4.resourceIcon;resIcon=mxgraph.aws4.ec2;movable=1;resizable=1;rotatable=1;deletable=1;editable=1;locked=0;connectable=1;" vertex="1" parent="CRB33uG2siL43U841Vf6-9">
          <mxGeometry x="90" y="330" width="42" height="42" as="geometry" />
        </mxCell>
        <mxCell id="CRB33uG2siL43U841Vf6-17" value="" style="image;aspect=fixed;perimeter=ellipsePerimeter;html=1;align=center;shadow=0;dashed=0;spacingTop=3;image=img/lib/active_directory/security.svg;movable=1;resizable=1;rotatable=1;deletable=1;editable=1;locked=0;connectable=1;" vertex="1" parent="CRB33uG2siL43U841Vf6-9">
          <mxGeometry x="182" y="220" width="31.5" height="50" as="geometry" />
        </mxCell>
        <mxCell id="CRB33uG2siL43U841Vf6-18" value="" style="image;aspect=fixed;perimeter=ellipsePerimeter;html=1;align=center;shadow=0;dashed=0;spacingTop=3;image=img/lib/active_directory/security.svg;movable=1;resizable=1;rotatable=1;deletable=1;editable=1;locked=0;connectable=1;" vertex="1" parent="CRB33uG2siL43U841Vf6-9">
          <mxGeometry x="145.25" y="20" width="31.5" height="50" as="geometry" />
        </mxCell>
        <mxCell id="CRB33uG2siL43U841Vf6-19" value="" style="sketch=0;outlineConnect=0;fontColor=#232F3E;gradientColor=none;fillColor=#DD344C;strokeColor=none;verticalLabelPosition=bottom;verticalAlign=top;align=center;html=1;fontSize=12;fontStyle=0;aspect=fixed;pointerEvents=1;shape=mxgraph.aws4.role;movable=1;resizable=1;rotatable=1;deletable=1;editable=1;locked=0;connectable=1;" vertex="1" parent="CRB33uG2siL43U841Vf6-9">
          <mxGeometry y="223" width="78" height="44" as="geometry" />
        </mxCell>
        <mxCell id="CRB33uG2siL43U841Vf6-25" style="edgeStyle=orthogonalEdgeStyle;rounded=0;orthogonalLoop=1;jettySize=auto;html=1;entryX=0;entryY=0.5;entryDx=0;entryDy=0;flowAnimation=1;movable=1;resizable=1;rotatable=1;deletable=1;editable=1;locked=0;connectable=1;" edge="1" parent="CRB33uG2siL43U841Vf6-33" source="CRB33uG2siL43U841Vf6-6" target="CRB33uG2siL43U841Vf6-13">
          <mxGeometry relative="1" as="geometry" />
        </mxCell>
        <mxCell id="CRB33uG2siL43U841Vf6-26" style="edgeStyle=orthogonalEdgeStyle;rounded=0;orthogonalLoop=1;jettySize=auto;html=1;entryX=0;entryY=0.5;entryDx=0;entryDy=0;entryPerimeter=0;flowAnimation=1;movable=1;resizable=1;rotatable=1;deletable=1;editable=1;locked=0;connectable=1;" edge="1" parent="CRB33uG2siL43U841Vf6-33" source="CRB33uG2siL43U841Vf6-3" target="CRB33uG2siL43U841Vf6-6">
          <mxGeometry relative="1" as="geometry" />
        </mxCell>
        <mxCell id="CRB33uG2siL43U841Vf6-27" style="edgeStyle=orthogonalEdgeStyle;rounded=0;orthogonalLoop=1;jettySize=auto;html=1;entryX=0;entryY=0.5;entryDx=0;entryDy=0;flowAnimation=1;movable=1;resizable=1;rotatable=1;deletable=1;editable=1;locked=0;connectable=1;" edge="1" parent="CRB33uG2siL43U841Vf6-33" source="CRB33uG2siL43U841Vf6-5" target="CRB33uG2siL43U841Vf6-13">
          <mxGeometry relative="1" as="geometry">
            <Array as="points">
              <mxPoint x="380" y="70" />
              <mxPoint x="380" y="317" />
            </Array>
          </mxGeometry>
        </mxCell>
        <mxCell id="CRB33uG2siL43U841Vf6-28" value="Database subnet" style="points=[[0,0],[0.25,0],[0.5,0],[0.75,0],[1,0],[1,0.25],[1,0.5],[1,0.75],[1,1],[0.75,1],[0.5,1],[0.25,1],[0,1],[0,0.75],[0,0.5],[0,0.25]];outlineConnect=0;gradientColor=none;html=1;whiteSpace=wrap;fontSize=12;fontStyle=0;container=1;pointerEvents=0;collapsible=0;recursiveResize=0;shape=mxgraph.aws4.group;grIcon=mxgraph.aws4.group_security_group;grStroke=0;strokeColor=#00A4A6;fillColor=#E6F6F7;verticalAlign=top;align=left;spacingLeft=30;fontColor=#147EBA;dashed=0;movable=1;resizable=1;rotatable=1;deletable=1;editable=1;locked=0;connectable=1;" vertex="1" parent="CRB33uG2siL43U841Vf6-33">
          <mxGeometry x="740" width="160" height="430" as="geometry" />
        </mxCell>
        <mxCell id="CRB33uG2siL43U841Vf6-29" value="" style="outlineConnect=0;dashed=0;verticalLabelPosition=bottom;verticalAlign=top;align=center;html=1;shape=mxgraph.aws3.rds_db_instance;fillColor=#2E73B8;gradientColor=none;movable=1;resizable=1;rotatable=1;deletable=1;editable=1;locked=0;connectable=1;" vertex="1" parent="CRB33uG2siL43U841Vf6-28">
          <mxGeometry x="42.63" y="156" width="74.75" height="118" as="geometry" />
        </mxCell>
        <mxCell id="CRB33uG2siL43U841Vf6-30" value="" style="image;aspect=fixed;perimeter=ellipsePerimeter;html=1;align=center;shadow=0;dashed=0;spacingTop=3;image=img/lib/active_directory/security.svg;movable=1;resizable=1;rotatable=1;deletable=1;editable=1;locked=0;connectable=1;" vertex="1" parent="CRB33uG2siL43U841Vf6-28">
          <mxGeometry x="100" y="140" width="31.5" height="50" as="geometry" />
        </mxCell>
        <mxCell id="CRB33uG2siL43U841Vf6-31" style="edgeStyle=orthogonalEdgeStyle;rounded=0;orthogonalLoop=1;jettySize=auto;html=1;entryX=0;entryY=0.5;entryDx=0;entryDy=0;entryPerimeter=0;flowAnimation=1;movable=1;resizable=1;rotatable=1;deletable=1;editable=1;locked=0;connectable=1;" edge="1" parent="CRB33uG2siL43U841Vf6-33" source="CRB33uG2siL43U841Vf6-13" target="CRB33uG2siL43U841Vf6-29">
          <mxGeometry relative="1" as="geometry" />
        </mxCell>
      </root>
    </mxGraphModel>
  </diagram>
</mxfile>
